<?xml version="1.0" encoding="UTF-8" standalone="no"?>
<!-- Created with Inkscape (http://www.inkscape.org/) -->

<svg
   width="20.902082mm"
   height="23.8125mm"
   viewBox="0 0 20.902082 23.8125"
   version="1.1"
   id="svg132"
   sodipodi:docname="HRsvg.svg"
   inkscape:version="1.1 (c68e22c387, 2021-05-23)"
   xmlns:inkscape="http://www.inkscape.org/namespaces/inkscape"
   xmlns:sodipodi="http://sodipodi.sourceforge.net/DTD/sodipodi-0.dtd"
   xmlns="http://www.w3.org/2000/svg"
   xmlns:svg="http://www.w3.org/2000/svg">
  <sodipodi:namedview
     id="namedview134"
     pagecolor="#ffffff"
     bordercolor="#666666"
     borderopacity="1.0"
     inkscape:pageshadow="2"
     inkscape:pageopacity="0.0"
     inkscape:pagecheckerboard="0"
     inkscape:document-units="mm"
     showgrid="false"
     fit-margin-top="0"
     fit-margin-left="0"
     fit-margin-right="0"
     fit-margin-bottom="0"
     inkscape:zoom="0.74118967"
     inkscape:cx="-319.75621"
     inkscape:cy="289.39961"
     inkscape:window-width="2560"
     inkscape:window-height="1017"
     inkscape:window-x="1912"
     inkscape:window-y="-8"
     inkscape:window-maximized="1"
     inkscape:current-layer="layer1" />
  <defs
     id="defs129" />
  <g
     inkscape:label="Layer 1"
     inkscape:groupmode="layer"
     id="layer1"
     transform="translate(-98.068192,-129.09735)">
    <g
       id="g6007"
       transform="matrix(1.1885842,0,0,1.1629011,-20.271272,-23.159771)">
      <path
         style="fill:#cfcfcf;stroke-width:0.264583"
         d="m 107.18092,146.96772 c -0.28539,-1.52127 0.0268,-2.65476 1.23935,-4.49896 0.87377,-1.32901 1.20266,-1.64709 1.47197,-1.42359 0.50824,0.4218 0.4247,1.03201 -0.23785,1.73726 -0.43476,0.46279 -0.56564,0.8852 -0.51058,1.6479 0.0407,0.56407 -0.10816,1.37794 -0.33086,1.80859 -0.2227,0.43065 -0.35012,0.85763 -0.28316,0.94884 0.0669,0.0912 0.0421,0.10605 -0.0552,0.033 -0.0973,-0.0731 -0.38742,0.0576 -0.64463,0.29036 -0.43755,0.39598 -0.47935,0.36098 -0.64901,-0.54337 z m 3.41399,-5.57866 c -0.0862,-0.22455 -0.0824,-0.48252 0.008,-0.57326 0.0907,-0.0907 0.16498,0.0405 0.16498,0.29161 0,0.27775 0.11964,0.38264 0.30546,0.2678 0.18926,-0.11697 0.23365,-0.0726 0.11668,0.11668 -0.25412,0.41118 -0.4084,0.38453 -0.59542,-0.10283 z m 0.60279,-0.77196 c 0.0874,-0.2277 0.004,-0.60097 -0.18599,-0.82951 -0.29558,-0.35615 -0.15141,-0.61085 1.00893,-1.78257 0.74458,-0.75187 1.78749,-1.84329 2.31757,-2.42538 0.56793,-0.62364 0.84272,-0.81157 0.66903,-0.45755 -0.16213,0.33043 -0.21134,0.73578 -0.10936,0.90078 0.12215,0.19765 0.0659,0.22611 -0.16502,0.0834 -0.26264,-0.16232 -0.30252,-0.0917 -0.15919,0.28178 0.10518,0.2741 0.10491,0.41203 -6.1e-4,0.30651 -0.25447,-0.25447 -1.70499,1.95113 -1.50063,2.2818 0.0873,0.14129 0.0338,0.17965 -0.11896,0.0853 -0.26026,-0.16085 -0.72853,0.52395 -0.64295,0.94026 0.0213,0.1039 -0.13834,0.12093 -0.35487,0.0378 -0.24406,-0.0936 -0.39371,0.005 -0.39371,0.25849 0,0.22526 -0.1177,0.48231 -0.26155,0.57122 -0.15044,0.093 -0.19407,-0.0142 -0.10269,-0.25234 z m -4.13368,-0.24256 c 0,-0.0549 0.20836,-0.2633 0.46303,-0.46302 0.41964,-0.32911 0.429,-0.31975 0.0999,0.0999 -0.34564,0.44073 -0.56292,0.58089 -0.56292,0.36313 z m 2.11667,-2.94282 c 0.8894,-0.89737 1.79382,-1.63159 2.00981,-1.63159 0.24362,0 0.0185,0.38321 -0.59292,1.00938 -0.5421,0.55516 -1.04406,0.95094 -1.11548,0.87952 -0.18139,-0.18138 -1.36898,0.9689 -1.23093,1.19227 0.0619,0.10011 -0.0675,0.18202 -0.28754,0.18202 -0.22541,0 0.30584,-0.71221 1.21706,-1.6316 z m 1.20727,-0.7276 0.77711,-0.8599 -0.8599,0.77711 c -0.80154,0.72437 -0.98151,0.94269 -0.7771,0.94269 0.0455,0 0.43248,-0.38696 0.85989,-0.8599 z m 2.93038,-2.71198 c 0.0838,-0.21828 0.2732,-0.39687 0.42097,-0.39687 0.15486,0 0.12915,0.16811 -0.0607,0.39687 -0.18116,0.21828 -0.3706,0.39688 -0.42097,0.39688 -0.0504,0 -0.0231,-0.1786 0.0607,-0.39688 z m 0.88943,-0.77513 c 0,-0.0728 0.23813,-0.25973 0.52917,-0.41549 0.29104,-0.15576 0.52917,-0.22367 0.52917,-0.15091 0,0.0728 -0.23813,0.25973 -0.52917,0.41549 -0.29104,0.15576 -0.52917,0.22367 -0.52917,0.15091 z"
         id="path6017" />
      <path
         style="fill:#9e9e9f;stroke-width:0.264583"
         d="m 101.26408,149.05134 c 0.0127,-0.30822 0.0754,-0.37092 0.15985,-0.15985 0.0764,0.191 0.067,0.4192 -0.0209,0.50712 -0.0879,0.0879 -0.15045,-0.0683 -0.13896,-0.34727 z m 5.00619,-0.90714 c 0,-0.59753 -0.10415,-1.02204 -0.23144,-0.94337 -0.47995,0.29663 0.43118,-3.19642 1.07918,-4.13728 0.86094,-1.25004 1.80269,-2.34662 2.45078,-2.8537 0.62305,-0.4875 0.56522,-0.37368 -1.10543,2.17548 -1.25082,1.90858 -1.57006,3.04926 -1.28244,4.58239 0.1789,0.95359 0.1886,0.96004 0.72077,0.47843 0.85034,-0.76955 1.32239,-1.90415 1.24399,-2.99002 -0.0554,-0.76732 0.0945,-1.19786 0.64464,-1.85168 0.39425,-0.46855 0.64765,-0.96384 0.5631,-1.10064 -0.0845,-0.13681 -0.0119,-0.21602 0.16152,-0.17604 0.17339,0.04 0.3503,-0.13565 0.39313,-0.39032 0.0873,-0.51873 -0.30141,-0.63987 -0.46626,-0.14532 -0.0824,0.24721 -0.14947,0.24721 -0.30225,0 -0.10799,-0.17473 -0.074,-0.3177 0.0755,-0.3177 0.14954,0 0.19954,-0.20836 0.1111,-0.46302 -0.12969,-0.37348 -0.0432,-0.35111 0.44733,0.11564 l 0.60811,0.57866 0.7516,-0.94577 c 0.41339,-0.52017 0.75042,-0.8401 0.74896,-0.71095 -0.001,0.12915 -0.7991,1.17893 -1.77254,2.33285 -1.58415,1.87785 -1.76228,2.20357 -1.69729,3.10365 0.0916,1.2686 -0.74955,2.82242 -2.12724,3.92956 l -1.01487,0.81557 z m -3.47333,-0.3399 c 0.28409,-0.3526 0.28956,-0.4507 0.0251,-0.4507 -0.23122,0 -0.19182,-0.16152 0.12476,-0.51132 0.27227,-0.30087 0.63758,-0.44423 0.88752,-0.34832 0.27712,0.10634 0.31389,0.19997 0.10578,0.26934 -0.17545,0.0585 -0.27099,0.18546 -0.21232,0.28217 0.0587,0.0967 -0.20847,0.40842 -0.59366,0.69268 -0.5444,0.40176 -0.61949,0.41649 -0.33722,0.0662 z m -1.02458,-0.55059 c 0,-0.055 0.20836,-0.26331 0.46302,-0.46303 0.41964,-0.3291 0.429,-0.31974 0.0999,0.0999 -0.34564,0.44073 -0.56291,0.58089 -0.56291,0.36313 z m 3.15288,-4.33188 c 0.83837,-1.12324 1.1692,-1.48844 1.73771,-1.91823 0.28874,-0.21828 -0.0531,0.28773 -0.75974,1.12448 -1.3366,1.5828 -1.92084,2.05698 -0.97797,0.79375 z m -3.26683,-0.0868 c 0.13097,-0.20694 0.23996,-0.46555 0.24219,-0.57469 0.002,-0.10914 0.0636,-0.16913 0.13634,-0.13332 0.0728,0.0358 0.51812,-0.20961 0.98968,-0.54539 0.47156,-0.33578 1.30499,-0.66382 1.85208,-0.72898 1.04502,-0.12446 0.9381,10e-4 -0.21523,0.25335 -0.37442,0.0818 -1.25731,0.58895 -1.96198,1.12701 -0.70467,0.53805 -1.17406,0.80897 -1.04308,0.60202 z m 4.87645,-0.50854 c 0.15576,-0.29104 0.41653,-0.52917 0.57948,-0.52917 0.16296,0 0.0808,0.23813 -0.18261,0.52917 -0.26339,0.29104 -0.52415,0.52916 -0.57948,0.52916 -0.0553,0 0.0268,-0.23812 0.18261,-0.52916 z m 0.46072,-2.67018 c 0.18064,-0.23167 0.26706,-0.4826 0.19205,-0.55761 -0.075,-0.075 0.0748,-0.30218 0.33302,-0.50482 0.41677,-0.32711 0.43258,-0.32119 0.14098,0.0528 -0.18064,0.23167 -0.26706,0.4826 -0.19204,0.55761 0.075,0.075 -0.0748,0.30219 -0.33303,0.50483 -0.41676,0.32711 -0.43257,0.32119 -0.14098,-0.0528 z m 3.4371,-0.39936 c -0.24757,-0.24758 1.78778,-2.3113 2.15786,-2.18794 0.17324,0.0577 -0.19808,0.60347 -0.83784,1.23134 -0.63194,0.6202 -1.22595,1.05067 -1.32002,0.9566 z m 2.71676,-0.89921 c 0,-0.14552 0.12609,-0.26459 0.2802,-0.26459 0.15411,0 0.20661,0.11907 0.11668,0.26459 -0.0899,0.14552 -0.21603,0.26458 -0.2802,0.26458 -0.0642,0 -0.11668,-0.11906 -0.11668,-0.26458 z m 0.52917,-0.79375 c 0,-0.14552 0.12609,-0.26459 0.2802,-0.26459 0.1541,0 0.20661,0.11907 0.11667,0.26459 -0.0899,0.14552 -0.21602,0.26458 -0.2802,0.26458 -0.0642,0 -0.11667,-0.11906 -0.11667,-0.26458 z m 0.53727,-0.66146 c 0,-0.14552 0.11541,-0.44318 0.25648,-0.66146 0.14106,-0.21828 0.25648,-0.27781 0.25648,-0.13229 0,0.14552 -0.11542,0.44318 -0.25648,0.66146 -0.14107,0.21828 -0.25648,0.27781 -0.25648,0.13229 z m -2.15852,-0.59531 c -0.32707,-0.41705 -0.3183,-0.42792 0.0883,-0.10952 0.52916,0.41438 1.10519,0.1601 0.89256,-0.39401 -0.081,-0.21112 -0.0452,-0.32075 0.0796,-0.24361 0.1248,0.0771 0.83782,-0.56213 1.58447,-1.42058 1.2943,-1.48808 1.77622,-2.27943 0.99158,-1.62824 -0.27955,0.23201 -0.39837,0.21931 -0.50316,-0.0538 -0.0881,-0.22968 0.0442,-0.34414 0.37011,-0.32012 0.60594,0.0446 1.34118,0.66411 0.78822,0.66411 -0.19868,0 -0.28101,0.16885 -0.19351,0.39687 0.0838,0.21828 0.0299,0.39688 -0.1196,0.39688 -0.14954,0 -0.19831,0.11906 -0.10837,0.26458 0.0899,0.14552 0.0304,0.26458 -0.1323,0.26458 -0.16269,0 -0.22222,0.11907 -0.13229,0.26459 0.0899,0.14552 -0.01,0.26458 -0.22156,0.26458 -0.21179,0 -0.7546,0.42086 -1.20624,0.93525 -0.45163,0.51438 -0.82116,0.84776 -0.82116,0.74083 0,-0.10693 -0.14287,-0.0515 -0.3175,0.12309 -0.4268,0.4268 -0.61049,0.40107 -1.03916,-0.14552 z m -1.15688,-0.8599 c -0.0899,-0.14552 -0.12673,-0.27369 -0.0818,-0.28483 0.87115,-0.21569 1.01936,-0.18019 0.72559,0.17378 -0.37068,0.44665 -0.43008,0.45689 -0.64383,0.11105 z m 1.7135,-0.57579 c 0.16533,-0.1992 0.16684,-0.42139 0.004,-0.61736 -0.17138,-0.2065 -0.136,-0.30616 0.1087,-0.30616 0.42794,0 0.39325,0.59878 -0.0564,0.97282 -0.22597,0.18799 -0.24192,0.17408 -0.0565,-0.0493 z"
         id="path6015" />
      <path
         style="fill:#b8bb36;stroke-width:0.264583"
         d="m 101.50778,148.85614 c 0,-0.21207 0.23835,-0.66666 0.52968,-1.01021 0.43022,-0.50732 0.49612,-0.52905 0.35094,-0.11567 -0.14081,0.40095 -0.0848,0.4729 0.26407,0.33904 0.66892,-0.25669 0.53367,-0.0227 -0.35094,0.60722 -0.61306,0.43653 -0.79375,0.47742 -0.79375,0.17962 z"
         id="path6013" />
      <path
         style="fill:#c85d19;stroke-width:0.264583"
         d="m 99.920275,150.4428 c 0,-0.65085 1.126845,-2.3948 1.996075,-3.0892 0.44632,-0.35655 0.44174,-0.31623 -0.0451,0.39687 -0.7816,1.14482 -0.94896,1.7198 -0.50058,1.7198 0.20648,0 0.47064,-0.14883 0.58701,-0.33073 0.29078,-0.45452 1.40221,-1.37892 1.40221,-1.16625 0,0.35327 -1.97128,2.33878 -2.6921,2.71152 -0.718967,0.3718 -0.747485,0.36257 -0.747485,-0.24201 z"
         id="path6011" />
      <path
         style="fill:#5a5959;stroke-width:0.264583"
         d="m 102.03694,149.60256 c 0.34178,-0.3638 0.68094,-0.66146 0.7537,-0.66146 0.0728,0 -0.14734,0.29766 -0.48911,0.66146 -0.34178,0.3638 -0.68094,0.66146 -0.7537,0.66146 -0.0728,0 0.14734,-0.29766 0.48911,-0.66146 z m 3.9041,-1.0648 c 0.0768,-0.68129 0.008,-1.33055 -0.16289,-1.53641 -0.31396,-0.3783 -1.79755,-0.43345 -2.35215,-0.0874 -0.1819,0.11348 -0.33072,0.12133 -0.33072,0.0174 0,-0.1039 -0.24384,0.0318 -0.54187,0.30147 -0.57013,0.51596 -1.42066,0.77814 -1.1609,0.35784 0.0835,-0.13512 0.25669,-0.18086 0.38486,-0.10165 0.12816,0.0792 0.36719,-0.10668 0.53117,-0.41308 0.16731,-0.31263 0.45969,-0.49511 0.66626,-0.41584 0.44039,0.16899 0.77427,-0.25655 0.3884,-0.49503 -0.14843,-0.0917 -0.19744,-0.45536 -0.10892,-0.80805 0.21358,-0.85097 -0.80797,-1.29357 -2.01469,-0.8729 -0.44944,0.15667 -0.87752,0.2245 -0.9513,0.15072 -0.21764,-0.21764 2.10051,-2.91806 3.06038,-3.56506 0.48893,-0.32957 1.30864,-0.60228 1.83625,-0.61092 0.84398,-0.0138 1.11963,-0.2157 2.40827,-1.76375 0.80037,-0.96148 2.2831,-2.46096 3.29497,-3.33217 1.80884,-1.5574 5.55266,-4.14889 5.99372,-4.14889 0.12373,0 0.0898,0.29672 -0.0755,0.65939 -0.21313,0.46776 -0.39206,0.58335 -0.61572,0.39773 -0.79603,-0.66065 -8.7314,6.19344 -9.89395,8.54581 -0.30245,0.61198 -0.86411,1.49964 -1.24814,1.97259 -0.38402,0.47294 -0.63014,0.85989 -0.54693,0.85989 0.0832,0 1.15945,-1.22574 2.39163,-2.72387 3.46748,-4.2159 8.7786,-9.00596 9.21832,-8.31394 0.11259,0.17721 0.20472,0.44125 0.20472,0.58677 0,0.14552 -0.10018,0.10657 -0.22263,-0.0866 -0.16417,-0.25895 -0.54755,0.0292 -1.46013,1.09736 -0.85887,1.00533 -1.38208,1.41071 -1.71003,1.32495 -0.69658,-0.18216 -1.22061,0.53961 -0.70341,0.96885 0.32252,0.26767 0.48546,0.26164 0.84004,-0.0311 0.37719,-0.31136 0.42138,-0.30655 0.31,0.0338 -0.0714,0.21828 -0.37542,0.43322 -0.67549,0.47763 -0.30008,0.0444 -0.96514,0.53419 -1.47792,1.0884 l -0.93231,1.00765 0.53856,0.53856 c 0.64576,0.64576 0.40407,1.21843 -0.40575,0.9614 -0.50603,-0.16061 -0.52991,-0.13174 -0.20992,0.25382 0.24605,0.29648 0.26381,0.43504 0.0558,0.43504 -0.16791,0 -0.37689,-0.18659 -0.46441,-0.41466 -0.19511,-0.50846 0.2947,-1.09334 0.55836,-0.66672 0.0978,0.1582 0.30438,0.28763 0.45913,0.28763 0.17743,0 0.15969,-0.14661 -0.048,-0.39687 -0.47537,-0.57279 -0.61055,-0.51835 -1.80667,0.7276 -2.43614,2.53761 -3.04875,4.02682 -2.77985,6.75764 l 0.16388,1.6644 0.68808,-0.60607 0.68807,-0.60607 -0.52432,0.61982 c -0.28837,0.3409 -0.71894,0.72398 -0.95682,0.85129 -0.37814,0.20238 -0.41579,0.0832 -0.29952,-0.94841 z m -1.27757,-7.43173 c 1.10706,-0.24185 1.24673,-0.324 0.58846,-0.34613 -0.8897,-0.0299 -2.2231,0.66527 -3.11104,1.62194 -0.73685,0.7939 -0.71677,0.78826 0.53821,-0.15121 0.71699,-0.53673 1.60995,-1.0428 1.98437,-1.1246 z m 2.26826,1.22049 c 0.26339,-0.29104 0.34557,-0.52917 0.18261,-0.52917 -0.16295,0 -0.42372,0.23813 -0.57948,0.52917 -0.15576,0.29104 -0.23794,0.52916 -0.18261,0.52916 0.0553,0 0.31609,-0.23812 0.57948,-0.52916 z m -3.72378,5.63674 c 0.0362,-0.24678 0.21584,-0.49868 0.39916,-0.55978 0.25939,-0.0865 0.26687,0.013 0.0337,0.44867 -0.3617,0.67583 -0.52179,0.71692 -0.43288,0.11111 z"
         id="path6009" />
    </g>
  </g>
</svg>
